# Alias OBJ Model File
# Exported from SketchUp, (c) 2000-2012 Trimble Navigation Limited
# File units = meters

mtllib barco.mtl

g Mesh1 Model

usemtl FrontColor
v 0.025915 10.21 -6.58316
vt -1.02028 259.179
vn 0 -1 -0
v 0.0225778 10.21 -6.57717
vt -0.888892 258.944
v 0.0225778 10.21 -6.58316
vt -0.888892 259.179
f 1/1/1 2/2/1 3/3/1

vt -226.617 418.965
vn -0.804023 -0.390806 -0.448127
vt -226.887 418.965
v 0.0225778 0 2.32684
vt 79.5858 -17.7329
f 2/4/2 1/5/2 4/6/2

usemtl drop_result_3
v 1.99258 0 -6.58316
vt -0.334823 -0.0036235
vn -0.959594 -0.184838 -0.212166
vt 0.110683 -0.0036235
vt -0.314094 0.384765
f 5/7/3 4/8/3 1/9/3

v 0.0225778 0 -15.4932
vt -0.00110229 0.579205
v 3.96258 0 -6.58316
vt -0.193459 0.246108
vt -0.00110229 -0.086988
vt -0.0972809 0.246108
v 0.0225778 0 -15.4932
v -1.94742 0 -6.58316
vt 0.0950763 0.246108
v 0.0225778 0 2.32684
v -3.91742 0 -6.58316
vt 0.191255 0.246108
f 6/10/1 7/11/1 4/12/1 5/13/1 8/10/1 9/14/1 10/12/1 11/15/1 

vt 0.215704 -1.75481e-16
vn 0.914572 7.46677e-16 -0.404423
vt 0.691337 -1.75481e-16
v 1.99258 5.96 -11.0382
vt 0.453521 0.222812
v 3.96258 5.96 -6.58316
vt 0.215704 0.222812
f 7/16/4 6/17/4 12/18/4 13/19/4 

v 0.0225778 5.96 -18.1662
vt 0.85456 0.242797
vn 0.95706 -0.118629 -0.264507
vt 0.493513 0.242797
vt 0.728775 0.0184001
f 14/20/5 12/21/5 6/22/5

vt -0.855147 0.242604
vn -0.95706 -0.118629 -0.264507
vt -0.729363 0.0182071
v -1.94742 5.96 -11.0382
vt -0.494101 0.242604
f 14/23/6 6/24/6 15/25/6

v -3.91742 5.96 -6.58316
vt -0.216596 0.222812
vn -0.914572 7.72425e-16 -0.404423
vt -0.454412 0.222812
vt -0.692229 -1.80339e-16
vt -0.216596 -1.80339e-16
f 16/26/7 15/27/7 6/28/7 11/29/7 

vt 0.104341 0
vn -0.914572 0 0.404423
v -1.94742 5.96 -2.12816
vt -0.133475 0.222812
vt -0.371292 0.222812
vt -0.371292 0
f 4/30/8 17/31/8 16/32/8 11/33/8 

v 0.0225778 5.96 4.55434
vt 0.213588 0.226553
vn -0.953876 -0.105097 0.281203
vt -0.126544 0.226553
vt 0.109276 0.00250003
f 18/34/9 17/35/9 4/36/9

vt -0.212964 0.226723
vn 0.953876 -0.105097 0.281203
vt -0.108652 0.00267021
v 1.99258 5.96 -2.12816
vt 0.127168 0.226723
f 18/37/10 4/38/10 19/39/10

vt -0.10345 9.25672e-19
vn 0.914572 -2.57475e-17 0.404423
vt 0.372183 9.25672e-19
vt 0.372183 0.222812
vt 0.134367 0.222812
f 4/40/11 7/41/11 13/42/11 19/43/11 

vt -0.738326 -0.0232921
vn -0.959554 -0.185055 0.212157
vt -0.29282 -0.0232921
v 0.0225778 10.21 -6.58747
vt -0.313789 0.365112
f 6/44/12 5/45/12 20/46/12

usemtl FrontColor
vt -204.349 373.375
vn -0.781836 -0.150598 0.605023
vt -204.564 373.375
vt -156.963 -33.2309
f 1/47/13 20/48/13 5/49/13

vt -0.888892 259.349
f 1/1/1 3/3/1 20/50/1

v 0.0191737 10.21 -6.58316
vt -0.75487 259.179
f 21/51/1 20/50/1 3/3/1

vt 204.119 277.558
vn 0.690525 -0.475453 0.545087
vt 203.902 277.558
vt 479.325 -179.359
f 20/52/14 21/53/14 6/54/14

usemtl drop_result_3
vt 0.293296 -0.0229595
vn 0.959595 -0.184832 0.212166
vt 0.738802 -0.0229595
vt 0.314023 0.365429
f 9/55/15 6/56/15 21/57/15

usemtl FrontColor
vt 224.937 417.712
vn 0.857385 -0.165145 -0.48746
vt 224.666 417.712
vt 263.204 10.1477
f 21/58/16 2/59/16 9/60/16

f 21/51/1 3/3/1 2/2/1

usemtl drop_result_3
vt -0.111159 -0.00332211
vn 0.95956 -0.185021 -0.212159
vt 0.334347 -0.00332211
vt 0.313298 0.38508
f 4/61/17 9/62/17 2/63/17

