# Alias OBJ Model File
# Exported from SketchUp, (c) 2000-2012 Trimble Navigation Limited
# File units = centimeters

mtllib canasta.mtl

g Mesh1 Model

usemtl _1
v 0 0 -0
vt -1.99682 0.00844232
vn 0 -1 -0
v 0 0 -52
vt -1.99682 -1.01469
v 57 0 -52
vt -0.993758 -1.01469
v 57 0 -0
vt -0.993758 0.00844232
f 1/1/1 2/2/1 3/3/1 4/4/1 

vt -0.991994 -0.00971464
vn -1 5.89736e-17 -9.37871e-19
vt -0.076923 -0.00971464
v 0 51 -0
vt -0.076923 0.993745
v 0 51 -15.9983
vt -0.358453 0.993745
v 0 51 -17.9884
vt -0.393474 0.993745
v 0 51 -34.9884
vt -0.692632 0.993745
v 0 51 -36.9983
vt -0.728001 0.993745
v 0 51 -52
vt -0.991994 0.993745
f 2/5/2 1/6/2 5/7/2 6/8/2 7/9/2 8/10/2 9/11/2 10/12/2 

vt -2.00144 -0.00332724
vn 0 0 1
vt -0.998383 -0.00332724
v 57 51 -0
vt -0.998383 1.00013
vt -2.00144 1.00013
f 1/13/3 4/14/3 11/15/3 5/16/3 

vt -0.990152 -0.00864444
vn 1 0 -0
vt -0.0750809 -0.00864444
v 57 51 -52
vt -0.0750809 0.994815
v 57 51 -36.5098
vt -0.34767 0.994815
v 57 51 -34.5098
vt -0.382865 0.994815
v 57 51 -32.4999
vt -0.418234 0.994815
v 57 51 -15.4999
vt -0.717392 0.994815
v 57 51 -13.5098
vt -0.752413 0.994815
vt -0.990152 0.994815
f 4/17/4 3/18/4 12/19/4 13/20/4 14/21/4 15/22/4 16/23/4 17/24/4 11/25/4 

vt -2.07406 2.99777
vn 0 0 -1
vt -1.071 2.99777
vt -1.071 4.00123
vt -2.07406 4.00122
f 3/26/5 2/27/5 10/28/5 12/29/5 

vt -2.0033 2.02815
vn 0 1 -0
v 4.67613 51 -47.0559
vt -1.92101 1.93087
vt -1.00024 2.02815
f 10/30/6 18/31/6 12/32/6

v 4 51 -36.9983
vt -1.93291 1.73298
f 10/30/6 19/33/6 18/31/6

vt -2.0033 1.73298
f 19/33/6 10/30/6 9/34/6

v 4 52.9611 -35.9452
vt -2.24832 1.6954
vn 0 0.557019 -0.8305
vt -2.24832 1.73919
vn 0 0.473087 -0.881016
vt -2.31871 1.73919
v 0 52.9611 -35.9452
vt -2.31871 1.6954
f 20/35/7 19/36/8 9/37/8 21/38/7 

v 4 51 -15.9983
vt -2.24069 1.20946
v 4 51 -17.9884
vt -2.21365 1.23435
v 4 52.6662 -18.7808
vt -2.22152 1.26957
v 4 54.1363 -19.8956
vt -2.22282 1.30584
v 4 55.3489 -21.2862
vt -2.21749 1.34165
v 4 56.2532 -22.8945
vt -2.20576 1.3755
v 4 56.8113 -24.653
vt -2.18811 1.40597
v 4 57 -26.4884
vt -2.16528 1.43179
v 4 56.8113 -28.3237
vt -2.13824 1.45188
v 4 56.2532 -30.0823
vt -2.1081 1.46539
v 4 55.3489 -31.6906
vt -2.07614 1.47177
v 4 54.1363 -33.0812
vt -2.04369 1.47074
v 4 52.6662 -34.196
vt -2.0121 1.46235
v 4 51 -34.9884
vt -1.9827 1.44695
vt -1.95539 1.47209
vt -1.99163 1.48871
v 4 54.6795 -34.5304
vt -2.03007 1.49712
v 4 56.0896 -32.808
vt -2.06925 1.497
v 4 57.1372 -30.844
vt -2.10764 1.48835
v 4 57.7822 -28.7135
vt -2.1438 1.4715
v 4 58 -26.4983
vt -2.17633 1.44711
v 4 57.7822 -24.283
vt -2.20399 1.41609
v 4 57.1372 -22.1526
vt -2.22572 1.37965
v 4 56.0896 -20.1886
vt -2.24069 1.33918
v 4 54.6795 -18.4662
vt -2.24832 1.29622
v 4 52.9611 -17.0513
vt -2.24832 1.25242
f 22/39/4 23/40/4 24/41/4 25/42/4 26/43/4 27/44/4 28/45/4 29/46/4 30/47/4 31/48/4 32/49/4 33/50/4 34/51/4 35/52/4 19/53/4 20/54/4 36/55/4 37/56/4 38/57/4 39/58/4 40/59/4 41/60/4 42/61/4 43/62/4 44/63/4 45/64/4 

vt -2.31871 1.36516
vt -2.31871 1.326
vt -2.24832 1.326
vt -2.24832 1.36516
f 7/65/6 6/66/6 22/67/6 23/68/6 

vt -2.57539 1.48871
vn -1 -2.64054e-16 5.21771e-19
vt -2.61163 1.47209
vt -2.58432 1.44695
v 0 52.6662 -34.196
vt -2.55492 1.46235
v 0 54.1363 -33.0812
vt -2.52333 1.47074
v 0 55.3489 -31.6906
vt -2.49088 1.47177
v 0 56.2532 -30.0823
vt -2.45892 1.46539
v 0 56.8113 -28.3237
vt -2.42878 1.45188
v 0 57 -26.4884
vt -2.40174 1.43179
v 0 56.8113 -24.653
vt -2.37891 1.40597
v 0 56.2532 -22.8945
vt -2.36127 1.3755
v 0 55.3489 -21.2862
vt -2.34953 1.34165
v 0 54.1363 -19.8956
vt -2.3442 1.30584
v 0 52.6662 -18.7808
vt -2.3455 1.26957
vt -2.35337 1.23435
vt -2.32633 1.20946
v 0 52.9611 -17.0513
vt -2.31871 1.25242
v 0 54.6795 -18.4662
vt -2.31871 1.29622
v 0 56.0896 -20.1886
vt -2.32633 1.33918
v 0 57.1372 -22.1526
vt -2.3413 1.37965
v 0 57.7822 -24.283
vt -2.36303 1.41609
v 0 58 -26.4983
vt -2.39069 1.44711
v 0 57.7822 -28.7135
vt -2.42322 1.4715
v 0 57.1372 -30.844
vt -2.45938 1.48835
v 0 56.0896 -32.808
vt -2.49778 1.497
v 0 54.6795 -34.5304
vt -2.53695 1.49712
f 21/69/9 9/70/9 8/71/9 46/72/9 47/73/9 48/74/9 49/75/9 50/76/9 51/77/9 52/78/9 53/79/9 54/80/9 55/81/9 56/82/9 7/83/9 6/84/9 57/85/9 58/86/9 59/87/9 60/88/9 61/89/9 62/90/9 63/91/9 64/92/9 65/93/9 66/94/9 

vt -2.31871 1.69965
vt -2.24832 1.69965
f 9/37/6 8/95/6 35/96/6 19/36/6 

vt -2.24832 0.174871
vn 0 -0.429478 0.903078
vt -2.24832 0.211173
vn 0 -0.519579 0.854422
vt -2.31871 0.211173
vt -2.31871 0.174871
f 35/97/10 34/98/11 46/99/11 8/100/10 

vt -2.24832 0.247475
vn 0 -0.68255 0.730839
vt -2.31871 0.247475
f 34/98/11 33/101/12 47/102/12 46/99/11 

vt -2.24832 -0.349516
vt -2.24832 -0.313214
vn 0 -0.816968 0.576683
vt -2.31871 -0.313214
vt -2.31871 -0.349516
f 33/103/12 32/104/13 48/105/13 47/106/12 

vt -2.24832 -0.276912
vn 0 -0.91721 0.398403
vt -2.31871 -0.276912
f 32/104/13 31/107/14 49/108/14 48/105/13 

vt -2.24832 -0.240609
vn 0 -0.979084 0.203457
vt -2.31871 -0.240609
f 31/107/14 30/109/15 50/110/15 49/108/14 

vt -6.98952 1.03238
vt -6.98952 0.996073
vt -6.91913 0.996073
vt -6.91913 1.03238
f 30/111/15 29/112/1 51/113/1 50/114/15 

vt -6.98952 0.959771
vn 0 -0.979084 -0.203457
vt -6.91913 0.959771
f 29/112/1 28/115/16 52/116/16 51/113/1 

vt -6.98952 1.29041
vt -6.98952 1.2541
vn 0 -0.91721 -0.398403
vt -6.91913 1.2541
vt -6.91913 1.29041
f 28/117/16 27/118/17 53/119/17 52/120/16 

vt -6.98952 1.2178
vn 0 -0.816968 -0.576683
vt -6.91913 1.2178
f 27/118/17 26/121/18 54/122/18 53/119/17 

vt -6.98952 1.34507
vt -6.98952 1.30877
vn 0 -0.68255 -0.730839
vt -6.91913 1.30877
vt -6.91913 1.34507
f 26/123/18 25/124/19 55/125/19 54/126/18 

vt -6.98952 1.27247
vn 0 -0.519579 -0.854422
vt -6.91913 1.27247
f 25/124/19 24/127/20 56/128/20 55/125/19 

vt -2.24832 1.32886
vn 0 -0.429478 -0.903078
vt -2.31871 1.32886
f 24/129/20 23/68/21 7/65/21 56/130/20 

vt -1.93291 1.35895
vt -2.0033 1.69343
vt -2.0033 1.35895
f 23/131/6 8/132/6 7/133/6

vt -1.93291 1.69343
f 8/132/6 23/131/6 35/134/6

v 4.67613 51 -4.05593
vt -1.92101 1.08482
f 23/131/6 67/135/6 35/134/6

vt -1.93291 1.31979
f 22/136/6 67/135/6 23/131/6

vt -2.0033 1.31979
f 6/137/6 67/135/6 22/136/6

vt -2.0033 1.00501
f 5/138/6 67/135/6 6/137/6

vt -1.00024 1.00501
f 67/135/6 5/138/6 11/139/6

v 52.6761 51 -4.05593
vt -1.07633 1.08482
f 67/135/6 11/139/6 68/140/6

v 53 51 -13.5098
vt -1.07063 1.27083
f 68/140/6 11/139/6 69/141/6

vt -1.00024 1.27083
f 69/141/6 11/139/6 17/142/6

vt -1.31565 1.16467
vn 0 0.473087 0.881016
v 57 52.9611 -14.5629
vt -1.31565 1.20846
vn 0 0.557019 0.8305
v 53 52.9611 -14.5629
vt -1.38604 1.20846
vt -1.38604 1.16467
f 17/143/22 70/144/23 71/145/23 69/146/22 

vt -1.07791 1.01123
vt -1.04289 1.01123
v 57 52.6662 -16.2923
vt -1.02894 1.04401
v 57 54.1363 -17.4071
vt -1.00932 1.07294
v 57 55.3489 -18.7977
vt -0.984853 1.09679
v 57 56.2532 -20.406
vt -0.956552 1.11459
v 57 56.8113 -22.1645
vt -0.925605 1.12557
v 57 57 -23.9999
vt -0.893308 1.12928
v 57 56.8113 -25.8353
vt -0.86101 1.12557
v 57 56.2532 -27.5938
vt -0.830063 1.11459
v 57 55.3489 -29.2021
vt -0.801763 1.09679
v 57 54.1363 -30.5927
vt -0.777291 1.07294
v 57 52.6662 -31.7075
vt -0.757673 1.04401
vt -0.743729 1.01123
vt -0.70836 1.01123
v 57 52.9611 -33.4567
vt -0.726891 1.04981
v 57 54.6795 -32.0419
vt -0.751788 1.08362
v 57 56.0896 -30.3195
vt -0.782098 1.11137
v 57 57.1372 -28.3555
vt -0.81666 1.13198
v 57 57.7822 -26.2251
vt -0.854151 1.14467
v 57 58 -24.0098
vt -0.893134 1.14896
v 57 57.7822 -21.7945
vt -0.932117 1.14467
v 57 57.1372 -19.6641
vt -0.969607 1.13198
v 57 56.0896 -17.7001
vt -1.00417 1.11137
v 57 54.6795 -15.9777
vt -1.03448 1.08362
vt -1.05938 1.04981
f 17/147/4 16/148/4 72/149/4 73/150/4 74/151/4 75/152/4 76/153/4 77/154/4 78/155/4 79/156/4 80/157/4 81/158/4 82/159/4 15/160/4 14/161/4 83/162/4 84/163/4 85/164/4 86/165/4 87/166/4 88/167/4 89/168/4 90/169/4 91/170/4 92/171/4 70/172/4 

v 53 51 -34.5098
vt -0.70836 1.08993
v 53 51 -32.4999
vt -0.743729 1.08993
v 53 51 -15.4999
vt -1.04289 1.08993
vt -1.07791 1.08993
f 17/147/6 16/148/6 15/160/6 14/161/6 93/173/6 94/174/6 95/175/6 69/176/6 

f 16/148/6 15/160/6 94/174/6 95/175/6 

vn -1.12278e-31 -0.429478 0.903078
vt -0.711261 1.01123
vn -5.6435e-32 -0.519579 0.854422
v 53 52.6662 -31.7075
vt -0.711261 1.08993
f 15/160/24 82/177/25 96/178/25 94/174/24 

vt -0.678793 1.01123
v 53 54.1363 -30.5927
vt -0.678793 1.08993
f 82/177/25 81/179/12 97/180/12 96/178/25 

vt -0.646325 1.01123
v 53 55.3489 -29.2021
vt -0.646325 1.08993
f 81/179/12 80/181/13 98/182/13 97/180/12 

vt -0.613857 1.01123
v 53 56.2532 -27.5938
vt -0.613857 1.08993
f 80/181/13 79/183/14 99/184/14 98/182/13 

vt -0.581389 1.01123
v 53 56.8113 -25.8353
vt -0.581389 1.08993
f 79/183/14 78/185/15 100/186/15 99/184/14 

vt -0.548921 1.01123
v 53 57 -23.9999
vt -0.548921 1.08993
f 78/185/15 77/187/1 101/188/1 100/186/15 

vt -0.516454 1.01123
v 53 56.8113 -22.1645
vt -0.516454 1.08993
f 77/187/1 76/189/16 102/190/16 101/188/1 

vt -0.483986 1.01123
v 53 56.2532 -20.406
vt -0.483986 1.08993
f 76/189/16 75/191/17 103/192/17 102/190/16 

vt -0.451518 1.01123
v 53 55.3489 -18.7977
vt -0.451518 1.08993
f 75/191/17 74/193/18 104/194/18 103/192/17 

vt -0.41905 1.01123
v 53 54.1363 -17.4071
vt -0.41905 1.08993
f 74/193/18 73/195/19 105/196/19 104/194/18 

vt -0.386582 1.01123
vn 1.09865e-30 -0.519579 -0.854422
v 53 52.6662 -16.2923
vt -0.386582 1.08993
f 73/195/19 72/197/26 106/198/26 105/196/19 

vt -1.07535 1.01123
vn 2.18579e-30 -0.429478 -0.903078
vt -1.07535 1.08993
f 72/199/26 16/148/27 95/175/27 106/200/26 

v 53 52.9611 -33.4567
vt -1.35153 1.66951
vn -1 -6.14348e-16 1.38436e-19
vt -1.38604 1.69023
vt -1.38604 1.65068
vt -1.35672 1.63509
vt -1.33084 1.61316
vt -1.30951 1.5858
vt -1.29359 1.55415
vt -1.28377 1.51955
vt -1.28045 1.48344
vt -1.28377 1.44733
vt -1.29359 1.41273
vt -1.30951 1.38108
vt -1.33084 1.35372
vt -1.35672 1.33179
vt -1.38604 1.3162
vt -1.38604 1.27704
vt -1.35153 1.29776
v 53 54.6795 -15.9777
vt -1.32129 1.3256
v 53 56.0896 -17.7001
vt -1.29647 1.35949
v 53 57.1372 -19.6641
vt -1.27804 1.39813
v 53 57.7822 -21.7945
vt -1.26669 1.44005
v 53 58 -24.0098
vt -1.26285 1.48364
v 53 57.7822 -26.2251
vt -1.26669 1.52722
v 53 57.1372 -28.3555
vt -1.27804 1.56914
v 53 56.0896 -30.3195
vt -1.29647 1.60778
v 53 54.6795 -32.0419
vt -1.32129 1.64167
f 107/201/28 93/202/28 94/203/28 96/204/28 97/205/28 98/206/28 99/207/28 100/208/28 101/209/28 102/210/28 103/211/28 104/212/28 105/213/28 106/214/28 95/215/28 69/216/28 71/217/28 108/218/28 109/219/28 110/220/28 111/221/28 112/222/28 113/223/28 114/224/28 115/225/28 116/226/28 

vt -1.31565 1.64643
vt -1.31565 1.69023
vt -1.38604 1.64643
f 83/227/7 14/228/8 93/202/8 107/229/7 

vt -1.07063 1.68402
vt -1.00024 1.68402
f 12/32/6 93/230/6 14/231/6

v 52.6761 51 -47.0559
vt -1.07633 1.93087
f 12/32/6 117/232/6 93/230/6

f 12/32/6 18/31/6 117/232/6

vt -1.07447 1.00013
vt -1.91915 1.00013
v 4.67613 14 -47.0559
vt -1.91915 0.272132
v 52.6761 14 -47.0559
vt -1.07447 0.272132
f 117/233/3 18/234/3 118/235/3 119/236/3 

vt -0.162084 0.994815
vt -0.918778 0.994815
v 4.67613 14 -4.05593
vt -0.918778 0.266815
vt -0.162084 0.266815
f 18/237/4 67/238/4 120/239/4 118/240/4 

f 18/31/6 19/33/6 67/135/6

f 35/134/6 67/135/6 19/33/6

vt -1.15329 4.00123
vt -1.99797 4.00122
v 52.6761 14 -4.05593
vt -1.99797 3.27322
vt -1.15329 3.27322
f 67/241/5 68/242/5 121/243/5 120/244/5 

vt -0.148297 0.993745
vn -1 0 -0
vt -0.904991 0.993745
vt -0.904991 0.265745
vt -0.148297 0.265745
f 68/245/29 117/246/29 119/247/29 121/248/29 

f 68/140/6 69/141/6 117/232/6

f 93/230/6 117/232/6 69/141/6

vt -1.07063 1.30998
f 93/230/6 69/141/6 95/249/6

vt -1.07063 1.64447
f 93/230/6 95/249/6 94/250/6

vt -1.94533 -0.209088
vt -1.94533 -1.05514
vt -1.10065 -1.05514
vt -1.10065 -0.209088
f 118/251/6 120/252/6 121/253/6 119/254/6 

vt -1.00024 1.72337
f 12/32/6 14/231/6 13/255/6

vt -1.31565 1.60264
vn 0 0.708092 -0.70612
vt -1.38604 1.60264
f 84/256/30 83/227/7 107/229/7 116/257/30 

vt -1.31565 1.55884
vn 0 0.83205 -0.5547
vt -1.38604 1.55884
f 85/258/31 84/256/30 116/257/30 115/259/31 

vt -1.31565 1.51504
vn 0 0.924146 -0.382039
vt -1.38604 1.51504
f 86/260/32 85/258/31 115/259/31 114/261/32 

vt -1.31565 1.47125
vn 0 0.980853 -0.194748
vt -1.38604 1.47125
f 87/262/33 86/260/32 114/261/32 113/263/33 

vt -1.31565 1.42745
vn 0 1 2.01501e-15
vt -1.38604 1.42745
f 88/264/34 87/262/33 113/263/33 112/265/34 

vt -1.31565 1.38365
vn 0 0.980853 0.194748
vt -1.38604 1.38365
f 89/266/35 88/264/34 112/265/34 111/267/35 

vt -1.31565 1.33985
vn 0 0.924146 0.382039
vt -1.38604 1.33985
f 90/268/36 89/266/35 111/267/35 110/269/36 

vt -1.31565 1.29606
vn 0 0.83205 0.5547
vt -1.38604 1.29606
f 91/270/37 90/268/36 110/269/36 109/271/37 

vt -1.31565 1.25226
vn 0 0.708092 0.70612
vt -1.38604 1.25226
f 92/272/38 91/270/37 109/271/37 108/273/38 

f 70/144/23 92/272/38 108/273/38 71/145/23 

vt -2.24832 1.20863
vt -2.31871 1.20863
f 22/274/22 45/64/23 57/85/23 6/275/22 

f 45/64/23 44/63/38 58/86/38 57/85/23 

vt -2.24832 1.34002
vt -2.31871 1.34002
f 44/63/38 43/276/37 59/277/37 58/86/38 

vt -2.261 1.38687
vt -2.28273 1.42331
vt -2.31957 1.34321
f 43/278/37 42/279/36 60/88/36 59/280/37 

vt -2.30446 1.45975
f 42/279/36 41/281/35 61/89/35 60/88/36 

vt -6.98952 -0.457621
vt -6.98952 -0.501418
vt -6.91913 -0.501418
vt -6.91913 -0.457621
f 41/282/35 40/283/34 62/284/34 61/285/35 

vt -6.98952 -0.545215
vt -6.91913 -0.545215
f 40/283/34 39/286/33 63/287/33 62/284/34 

vt -6.98952 -0.589012
vt -6.91913 -0.589012
f 39/286/33 38/288/32 64/289/32 63/287/33 

vt -6.98952 -0.632809
vt -6.91913 -0.632809
f 38/288/32 37/290/31 65/291/31 64/289/32 

vt -6.98952 -0.676606
vt -6.91913 -0.676606
f 37/290/31 36/292/30 66/293/30 65/291/31 

vt -2.24832 1.6516
vt -2.31871 1.6516
f 36/294/30 20/35/7 21/38/7 66/295/30 

