# Alias OBJ Model File
# Exported from SketchUp, (c) 2000-2012 Trimble Navigation Limited
# File units = millimeters

mtllib sillon.mtl

g Mesh1 Model

usemtl CHEERY_WOOD
v 3573.28 0 -3394.45
vt -14.2931 18.1037
vn 0 -1 -0
v 3573.28 0 -3344.45
vt -14.2931 17.8371
v 3353.28 0 -3344.45
vt -13.4131 17.8371
v 3353.28 0 -3394.45
vt -13.4131 18.1037
f 1/1/1 2/2/1 3/3/1 4/4/1 

vt 13.5778 0
vn 1 0 -0
v 3573.28 650 -3394.45
vt 13.5778 3.46667
v 3573.28 650 -3344.45
vt 13.3778 3.46667
v 3573.28 400 -3344.45
vt 13.3778 2.13333
v 3573.28 350 -3344.45
vt 13.3778 1.86667
vt 13.3778 0
f 1/5/2 5/6/2 6/7/2 7/8/2 8/9/2 2/10/2 

v 3353.28 150 -3394.45
vt -13.4131 0.8
vn 0 0 -1
v 3353.28 300 -3394.45
vt -13.4131 1.6
v 3353.28 400 -3394.45
vt -13.4131 2.13333
v 3353.28 700 -3394.45
vt -13.4131 3.73333
v 3573.28 700 -3394.45
vt -14.2931 3.73333
vt -14.2931 3.46667
vt -14.2931 0
vt -13.4131 0
f 9/11/3 10/12/3 11/13/3 12/14/3 13/15/3 5/16/3 1/17/3 4/18/3 

usemtl TELA_CREMA
v 1353.28 150 -3394.45
vt -5.41311 0.8
v 1353.28 300 -3394.45
vt -5.41311 1.6
v 2353.28 300 -3394.45
vt -9.41311 1.6
f 9/11/3 14/19/3 15/20/3 16/21/3 10/12/3 

v 3361.68 150 -2686.65
vt -13.4467 14.3288
vn 2.25101e-18 -1 2.85366e-18
v 3361.68 150 -2467.55
vt -13.4467 13.1603
v 2463.28 150 -2467.55
vt -9.85311 13.1603
v 2243.28 150 -2467.55
vt -8.97311 13.1603
v 1351.48 150 -2467.55
vt -5.40591 13.1603
v 1351.48 150 -2687.55
vt -5.40591 14.3336
v 1351.48 150 -3344.45
vt -5.40591 17.8371
v 1353.28 150 -3344.45
vt -5.41311 17.8371
vt -5.41311 18.1037
v 3353.28 150 -3344.45
v 3361.68 150 -3344.45
vt -13.4467 17.8371
f 17/22/4 18/23/4 19/24/4 20/25/4 21/26/4 22/27/4 23/28/4 24/29/4 14/30/4 9/4/4 25/3/4 26/31/4 

usemtl CHEERY_WOOD
v 3361.68 0 -2467.55
vt -9.8702 0
vn -1 0 -0
vt -9.8702 0.8
vt -10.7466 0.8
v 3361.68 0 -2686.65
vt -10.7466 0
f 27/32/5 18/33/5 17/34/5 28/35/5 

v 3416.18 350 -2467.55
vt 13.6647 1.86667
vn -4.04118e-14 4.40488e-15 1
v 3361.68 350 -2467.55
vt 13.4467 1.86667
vt 13.4467 0.8
vt 13.4467 5.79694e-14
v 3416.18 0 -2467.55
vt 13.6647 5.79694e-14
f 29/36/6 30/37/6 18/38/6 27/39/6 31/40/6 

v 3573.28 350 -2257.35
vt -14.2931 12.0392
vn 2.01215e-17 -1 -8.31932e-18
v 1133.28 350 -2257.35
vt -4.53311 12.0392
v 1133.28 350 -3344.45
vt -4.53311 17.8371
v 1351.48 350 -3344.45
v 1351.48 350 -2687.55
v 1301.48 350 -2687.55
vt -5.20591 14.3336
v 1301.48 350 -2467.55
vt -5.20591 13.1603
v 1351.48 350 -2467.55
v 2243.28 350 -2467.55
v 2243.28 350 -2417.55
vt -8.97311 12.8936
v 2463.28 350 -2417.55
vt -9.85311 12.8936
v 2463.28 350 -2467.55
vt -13.6647 13.1603
v 3416.18 350 -2588.45
vt -13.6647 13.8051
v 3573.28 350 -2588.45
vt -14.2931 13.8051
f 32/41/7 33/42/7 34/43/7 35/28/7 36/27/7 37/44/7 38/45/7 39/26/7 40/25/7 41/46/7 42/47/7 43/24/7 30/23/7 29/48/7 44/49/7 45/50/7 

vt 14.2931 1.86667
vn 0 0 1
v 3573.28 400 -2257.35
vt 14.2931 2.13333
v 1133.28 400 -2257.35
vt 4.53311 2.13333
vt 4.53311 1.86667
f 32/51/8 46/52/8 47/53/8 33/54/8 

vt 9.0294 2.13333
vt 9.0294 1.86667
vt 10.3538 1.86667
f 8/9/2 7/8/2 46/55/2 32/56/2 45/57/2 

v 3353.58 400 -2577.45
vt 13.4143 13.7464
vn -4.08854e-16 1 9.36652e-17
v 3353.58 400 -2467.55
vt 13.4143 13.1603
vt 14.2931 12.0392
vt 14.2931 17.8371
v 3353.58 400 -3344.45
vt 13.4143 17.8371
f 48/58/9 49/59/9 46/60/9 7/61/9 50/62/9 

usemtl TELA_CREMA
v 3353.58 650 -2467.55
vt 9.8702 3.46667
vn 1 -1.01576e-30 2.62754e-14
vt 9.8702 2.13333
vt 10.3098 2.13333
v 3353.58 430 -2577.45
vt 10.3098 2.29333
v 3353.58 650 -2577.45
vt 10.3098 3.46667
f 51/63/10 49/64/10 48/65/10 52/66/10 53/67/10 

vt 13.4143 3.46667
v 2353.28 650 -2467.55
vt 9.41311 3.46667
v 2353.28 400 -2467.55
vt 9.41311 2.13333
vt 13.4143 2.13333
f 51/68/8 54/69/8 55/70/8 49/71/8 

usemtl CHEERY_WOOD
v 1133.28 650 -2257.35
vn 2.30062e-17 -1 1.72404e-16
v 1133.28 650 -2588.45
vt -4.53311 13.8051
v 1351.88 650 -2588.45
vt -5.40751 13.8051
v 1351.88 650 -2577.45
vt -5.40751 13.7464
v 1352.48 650 -2577.45
vt -5.40991 13.7464
v 1352.48 650 -2588.45
vt -5.40991 13.8051
v 1353.28 650 -2588.45
vt -5.41311 13.8051
v 1353.28 650 -2577.35
vt -5.41311 13.7459
v 1353.28 650 -2467.55
vt -5.41311 13.1603
vt -9.41311 13.1603
vt -13.4143 13.1603
vt -13.4143 13.7464
v 3573.28 650 -2577.45
vt -14.2931 13.7464
v 3573.28 650 -2257.35
f 56/42/11 57/72/11 58/73/11 59/74/11 60/75/11 61/76/11 62/77/11 63/78/11 64/79/11 54/80/11 51/81/11 53/82/11 65/83/11 66/41/11 

v 1133.28 700 -3394.45
vt -13.5778 3.73333
v 1133.28 650 -3394.45
vt -13.5778 3.46667
v 1133.28 650 -3344.45
vt -13.3778 3.46667
vt -10.3538 3.46667
vt -9.0294 3.46667
v 1133.28 700 -2257.35
vt -9.0294 3.73333
f 67/84/5 68/85/5 69/86/5 57/87/5 56/88/5 70/89/5 

v 1353.28 700 -3394.45
vt -5.41311 3.73333
v 1353.28 400 -3394.45
vt -5.41311 2.13333
v 1353.28 0 -3394.45
vt -5.41311 0
v 1133.28 0 -3394.45
vt -4.53311 0
vt -4.53311 3.46667
vt -4.53311 3.73333
f 71/90/3 72/91/3 15/20/3 14/19/3 73/92/3 74/93/3 68/94/3 67/95/3 

v 1353.28 700 -2577.35
vt 10.3094 3.73333
vn 1 -3.01227e-16 1.11712e-16
vt 10.3094 3.46667
vt 10.3538 3.46667
v 1353.28 650 -3344.45
v 1353.28 400 -3344.45
vt 13.5778 2.13333
vt 13.5778 3.73333
f 75/96/12 63/97/12 62/98/12 76/7/12 77/8/12 72/99/12 71/100/12 

usemtl TELA_CREMA
v 1353.28 720.2 -2577.35
vt -5.41311 3.84107
v 1433.08 800 -2577.35
vt -5.73231 4.26667
v 2273.48 800 -2577.35
vt -9.09393 4.26667
v 2353.28 720.206 -2577.35
vt -9.41311 3.8411
v 2353.28 400 -2577.35
vt -9.41311 2.13333
v 1353.28 400 -2577.35
vt -5.41311 3.46667
f 75/90/3 78/101/3 79/102/3 80/103/3 81/104/3 82/105/3 83/91/3 63/106/3 

v 1353.28 700 -2477.35
vt -9.9094 3.73333
v 1353.28 720.2 -2477.35
vt -9.9094 3.84107
vt -10.3094 3.84107
vt -10.3094 3.73333
f 84/107/5 85/108/5 78/109/5 75/110/5 

vt 5.41311 3.73333
v 2353.28 700 -2477.35
vt 9.41311 3.73333
v 2353.28 720.206 -2477.35
vt 9.41311 3.8411
v 2273.48 800 -2477.35
vt 9.09393 4.26667
v 1433.08 800 -2477.35
vt 5.73231 4.26667
vt 5.41311 3.84107
f 84/111/8 86/112/8 87/113/8 88/114/8 89/115/8 85/116/8 

usemtl CHEERY_WOOD
v 3573.28 700 -2257.35
vn 0 1 -0
v 3353.28 700 -2477.35
vt 13.4131 13.2125
vt 9.41311 13.2125
vt 5.41311 13.2125
vt 4.53311 12.0392
f 90/60/13 91/117/13 86/118/13 84/119/13 70/120/13 

vt 14.2931 18.1037
vt 13.4131 18.1037
v 3353.28 700 -2577.45
vt 13.4131 13.7464
f 90/60/13 13/121/13 12/122/13 92/123/13 91/117/13 

vt 9.0294 3.73333
vt 9.0294 3.46667
f 90/124/2 66/125/2 65/67/2 6/7/2 5/6/2 13/100/2 

vt 4.53311 3.73333
vt 4.53311 3.46667
vt 14.2931 3.46667
vt 14.2931 3.73333
f 70/126/8 56/127/8 66/128/8 90/129/8 

vn 0 -1 -1.17652e-16
v 3353.58 650 -3344.45
vt -13.4143 17.8371
f 6/2/14 65/83/14 53/82/14 93/130/14 

usemtl FrontColor
v 3353.28 650 -3344.45
vt -132.019 131.671
vn -3.72094e-29 -1 -1.17652e-16
vt -132.031 131.671
vt -132.031 101.474
f 94/131/15 93/132/15 53/133/15

vt -132.019 25.5906
vt -132.031 25.5906
v 3353.58 430 -3344.45
vt -132.031 16.9291
v 3353.28 430 -3344.45
vt -132.019 16.9291
f 94/134/3 93/135/3 95/136/3 96/137/3 

vt -140.68 25.5906
vt -140.68 15.748
vt -132.031 15.748
f 6/138/3 7/139/3 50/140/3 95/136/3 93/135/3 

vt 132.019 16.9291
v 3353.28 400 -3344.45
vt 132.019 15.748
vt 132.031 15.748
vt 132.031 16.9291
f 96/141/8 97/142/8 50/143/8 95/144/8 

usemtl CHEERY_WOOD
vt -13.5778 2.13333
vn -1 -3.34483e-15 2.19657e-15
vt -13.3778 2.13333
vt -13.3778 2.29333
v 3353.28 650 -2577.45
vt -10.3098 3.46667
vt -10.3098 3.73333
f 11/145/16 97/146/16 96/147/16 94/86/16 98/148/16 92/149/16 12/84/16 

usemtl TELA_CREMA
v 2353.28 400 -2577.45
vt 9.41311 13.7464
vn 6.4292e-17 1 3.46127e-17
vt 13.4131 17.8371
v 2353.28 400 -3394.45
vt 9.41311 18.1037
f 99/150/17 48/58/17 97/151/17 11/122/17 100/152/17 

v 2433.08 800 -2577.45
vt -9.7323 4.26668
vn 4.4831e-07 -1.21196e-06 -1
v 3273.48 800 -2577.45
vt -13.0939 4.26668
v 3353.28 720.2 -2577.45
vt -13.4131 3.84108
vt -13.4131 3.73335
vt -13.4131 3.46668
vt -13.4143 3.46668
vt -13.4143 2.29335
vt -13.4143 2.13335
vt -9.4131 2.13335
v 2353.28 720.206 -2577.45
vt -9.4131 3.84111
f 101/153/18 102/154/18 103/155/18 92/156/18 98/157/18 53/158/18 52/159/18 48/160/18 99/161/18 104/162/18 

v 2433.08 800 -2477.35
vt 9.73231 13.2125
v 3273.48 800 -2477.35
vt 13.0939 13.2125
vt 13.0939 13.7464
vt 9.73231 13.7464
f 105/163/13 106/164/13 102/165/13 101/166/13 

vt 9.73231 4.26667
vt 13.4131 3.73333
v 3353.28 720.2 -2477.35
vt 13.4131 3.84107
vt 13.0939 4.26667
f 105/167/8 87/113/8 86/112/8 91/168/8 107/169/8 106/170/8 

vt -9.9094 12.1929
vn -0.707082 0.707132 -0
vt -10.3098 12.1929
vt -10.3098 11.591
vt -10.3094 11.591
vt -9.9094 11.591
f 105/171/19 101/172/19 104/173/19 81/174/19 87/175/19 

usemtl FrontColor
vt -101.47 15.748
vt -101.47 28.3546
vt -101.474 28.3546
vt -101.474 15.748
f 82/176/5 81/177/5 104/178/5 99/179/5 

usemtl TELA_CREMA
vt 5.41311 13.7459
vn 4.4406e-17 1 -7.33653e-17
vt 9.41311 13.7459
vt 5.41311 18.1037
vt 5.41311 17.8371
v 1353.28 400 -2588.45
vt 5.41311 13.8051
f 83/180/20 82/181/20 99/150/20 100/152/20 72/182/20 77/183/20 108/184/20 

f 72/91/3 100/105/3 16/21/3 15/20/3 

f 10/12/3 16/21/3 100/105/3 11/13/3 

vt -10.3538 2.13333
vn -1 -4.81274e-16 3.55425e-16
vt -10.3094 2.13333
vt -10.3094 3.46667
f 108/185/21 83/186/21 63/187/21 62/87/21 76/86/21 77/146/21 

usemtl CHEERY_WOOD
v 1133.28 400 -3344.45
vt 4.53311 17.8371
vn -3.22897e-16 1 -2.08705e-17
v 1353.28 400 -2467.55
vt 5.41311 13.1603
v 1352.48 400 -3344.45
vt 5.40991 17.8371
v 1351.88 400 -3344.45
vt 5.40751 17.8371
f 109/188/22 47/120/22 110/189/22 83/180/22 108/184/22 77/183/22 111/190/22 112/191/22 

vt -9.0294 1.86667
vt -9.0294 2.13333
vt -13.3778 1.86667
f 33/192/5 47/193/5 109/146/5 34/194/5 

vt -13.5778 0
v 1133.28 0 -3344.45
vt -13.3778 0
v 1133.28 150 -3344.45
vt -13.3778 0.8
f 74/195/5 113/196/5 114/197/5 34/194/5 109/146/5 69/86/5 68/85/5 

vt -4.53311 18.1037
v 1353.28 0 -3344.45
f 74/198/1 73/30/1 115/29/1 113/43/1 

vt 13.5778 0.8
vt 13.3778 0.8
f 115/10/2 73/5/2 14/199/2 24/200/2 

vt 4.53311 0
vt 5.41311 0
vt 5.41311 0.8
vt 5.40591 0.8
vt 4.53311 0.8
f 113/201/8 115/202/8 24/203/8 23/204/8 114/205/8 

vt 5.40591 1.86667
f 34/54/8 114/205/8 23/204/8 35/206/8 

usemtl TELA_CREMA
vn -1 -4.51195e-16 -3.58091e-16
vt -10.7502 0.8
vt -10.7502 1.86667
f 23/197/23 22/207/23 36/208/23 35/194/23 

usemtl CHEERY_WOOD
v 1351.48 -6.19138e-14 -2687.55
vt -5.40591 -3.30207e-16
v 1301.48 -1.12799e-14 -2687.55
vt -5.20591 -6.01593e-17
vt -5.20591 1.86667
vt -5.40591 1.86667
vt -5.40591 0.8
f 116/209/3 117/210/3 37/211/3 36/212/3 22/213/3 

vn -3.6761e-17 -1 3.01931e-17
v 1351.48 -5.06339e-14 -2467.55
v 1301.48 0 -2467.55
f 116/27/24 118/26/24 119/45/24 117/44/24 

vt 10.7502 0.8
vn 1 -1.80478e-15 -7.46393e-16
vt 9.8702 0.8
vt 9.8702 1.27386e-14
vt 10.7502 1.26784e-14
f 22/214/25 21/215/25 118/216/25 116/217/25 

vt 5.40591 -2.70048e-16
vt 5.20591 1.86667
vt 5.20591 0
f 118/218/8 21/204/8 39/206/8 38/219/8 119/220/8 

usemtl TELA_CREMA
vt 8.97311 1.86667
vt 8.97311 0.8
f 40/221/8 39/206/8 21/204/8 20/222/8 

usemtl CHEERY_WOOD
v 2243.28 0 -2467.55
v 2243.28 0 -2417.55
vt -9.6702 0
vt -9.6702 1.86667
vt -9.8702 1.86667
f 120/32/5 121/223/5 41/224/5 40/225/5 20/33/5 

v 2463.28 0 -2467.55
v 2463.28 0 -2417.55
f 122/24/1 123/47/1 121/46/1 120/25/1 

vt 9.8702 -6.4299e-16
vn 1 4.89431e-17 5.7046e-16
vt 9.8702 1.86667
vt 9.6702 1.86667
vt 9.6702 -6.4299e-16
f 122/226/26 19/215/26 43/227/26 42/228/26 123/229/26 

vt -8.97311 0
vt -8.97311 0.8
vt -9.85311 0.8
vt -9.85311 0
f 120/230/3 20/231/3 19/232/3 122/233/3 

vt 9.85311 1.86667
vt 9.85311 0.8
f 43/234/8 40/221/8 20/222/8 19/235/8 

usemtl TELA_CREMA
f 19/235/8 18/38/8 30/37/8 43/234/8 

usemtl FrontColor
vt 97.1476 13.7795
vt 97.1476 5.90551
vt 105.774 5.90551
v 3361.68 350 -2686.65
vt 105.774 13.7795
f 30/236/2 18/237/2 17/238/2 124/239/2 

usemtl TELA_CREMA
v 3361.68 350 -3344.45
vt 10.7466 1.86667
vt 10.7466 0.8
f 125/9/2 124/240/2 17/241/2 26/200/2 

usemtl CHEERY_WOOD
v 3416.18 350 -2686.65
vt -13.6647 14.3288
f 45/50/1 44/49/1 126/242/1 124/22/1 125/31/1 8/2/1 

vt 9.8702 0
v 3416.18 0 -2686.65
vt 10.7466 0
f 31/243/2 127/244/2 126/240/2 44/57/2 29/227/2 

f 27/23/1 28/22/1 127/242/1 31/48/1 

vt -13.4467 0
vt -13.4467 0.8
vt -13.4467 1.86667
vt -13.6647 1.86667
vt -13.6647 0
f 28/245/3 17/246/3 124/247/3 126/248/3 127/249/3 

vt 13.4131 0.8
vt 13.4131 0
vt 14.2931 0
f 125/37/8 26/38/8 25/250/8 3/251/8 2/252/8 8/51/8 

vt -13.5778 0.8
f 4/195/5 3/196/5 25/197/5 9/253/5 

vt 8.97311 0
vt 9.85311 0
f 41/221/8 121/254/8 123/255/8 42/234/8 

vt -10.7502 -6.01593e-17
f 38/225/5 37/208/5 117/256/5 119/32/5 

usemtl FrontColor
vt -44.6172 15.748
vt -44.6172 25.5906
v 1351.88 650 -3344.45
vt -53.2235 25.5906
vt -53.2235 15.748
f 109/257/3 69/258/3 128/259/3 112/260/3 

usemtl CHEERY_WOOD
vt -5.40751 17.8371
f 57/72/1 69/43/1 128/261/1 58/73/1 

usemtl FrontColor
v 1352.48 650 -3344.45
vt -53.2471 131.671
vt -53.2471 101.907
vt -53.2471 101.474
vt -53.2235 101.474
vt -53.2235 101.907
vt -53.2235 131.671
f 129/262/1 61/263/1 60/264/1 59/265/1 58/266/1 128/267/1 

vt -53.2786 131.671
vt -53.2786 101.907
f 129/262/1 76/268/1 62/269/1 61/263/1 

vt -53.2786 15.748
vt -53.2471 15.748
vt -53.2471 25.5906
vt -53.2786 25.5906
f 77/270/3 111/271/3 129/272/3 76/273/3 

f 111/271/3 112/260/3 128/259/3 129/272/3 

vt 53.2471 25.5906
vt 53.2235 25.5906
v 1351.88 400 -2577.45
vt 53.2235 15.748
v 1352.48 400 -2577.45
vt 53.2471 15.748
f 60/274/8 59/275/8 130/276/8 131/277/8 

usemtl CHEERY_WOOD
vt 9.41311 13.1603
f 47/120/13 46/60/13 49/59/13 55/278/13 110/189/13 

usemtl TELA_CREMA
vt 5.41311 3.46667
vt 5.41311 2.13333
f 64/279/8 110/280/8 55/70/8 54/69/8 

vt -9.8702 2.13333
vn -1 -3.60956e-16 -2.46554e-15
vt -9.8702 3.46667
f 110/281/27 64/282/27 63/187/27 83/186/27 

vt 10.3094 -6.1587
vn 0.707107 0.707107 -2.02592e-17
vt 10.3094 -5.55685
vt 9.9094 -5.55685
vt 9.9094 -6.1587
f 81/283/28 80/284/28 88/285/28 87/286/28 

vt 9.09393 13.7459
vt 5.73231 13.7459
vt 5.73231 13.2125
vt 9.09393 13.2125
f 80/287/13 79/288/13 89/289/13 88/290/13 

vt -10.3094 8.42146
vn -0.707107 0.707107 2.30321e-30
vt -10.3094 7.81957
vt -9.9094 7.81957
vt -9.9094 8.42146
f 79/291/29 78/292/29 85/293/29 89/294/29 

vt 10.3098 3.84107
vt 9.9094 3.84107
vt 9.9094 3.73333
vt 10.3098 3.73333
f 103/295/2 107/296/2 91/297/2 92/298/2 

vt 9.9094 -9.92996
vn 0.707107 0.707107 -2.07289e-29
vt 10.3098 -9.92996
vt 10.3098 -9.32807
vt 9.9094 -9.32807
f 107/299/30 103/300/30 102/301/30 106/302/30 

usemtl FrontColor
vt -132.019 101.474
vn 3.72094e-29 -1 -1.17652e-16
f 98/303/31 94/131/31 53/133/31

usemtl TELA_CREMA
vt -10.3045 2.13333
vn -1 -5.975e-21 0.000391134
vt -10.3045 2.29333
vt -10.3045 3.46667
vt -13.3725 3.46667
vt -13.3725 2.29333
vt -13.3725 2.13333
f 48/304/32 52/305/32 53/306/32 94/307/32 96/308/32 97/309/32 

vt 13.3778 2.29333
f 93/7/2 53/67/2 52/66/2 48/65/2 50/8/2 95/310/2 

usemtl FrontColor
vt 132.031 131.671
vt 132.019 131.671
vt 132.031 101.474
f 50/311/13 97/312/13 48/313/13

usemtl CHEERY_WOOD
vt 4.53311 18.1037
f 70/120/13 84/119/13 75/180/13 71/182/13 67/314/13 

